<?xml version="1.0" standalone="no"?>
<!DOCTYPE svg PUBLIC "-//W3C//DTD SVG 20010904//EN"
 "http://www.w3.org/TR/2001/REC-SVG-20010904/DTD/svg10.dtd">
<svg version="1.0" xmlns="http://www.w3.org/2000/svg"
 width="1280.000000pt" height="1280.000000pt" viewBox="0 0 1280.000000 1280.000000"
 preserveAspectRatio="xMidYMid meet">

<defs>
    <linearGradient id="botGradient" x1="0%" y1="0%" x2="100%" y2="100%">
        <stop offset="0%" style="stop-color:#8e24aa;stop-opacity:1" /> <!-- Púrpura -->
        <stop offset="100%" style="stop-color:#00e5ff;stop-opacity:1" /> <!-- Celeste -->
    </linearGradient>
</defs>

<g transform="translate(0.000000,1280.000000) scale(0.100000,-0.100000)"
 fill="url(#botGradient)" stroke="none">
<path d="M6294 10771 c-225 -36 -413 -202 -469 -417 -62 -238 64 -503 292
-616 l83 -41 -2 -481 -3 -481 -190 -6 c-200 -6 -232 -12 -317 -62 -55 -32
-139 -121 -169 -178 -12 -24 -28 -66 -34 -94 l-12 -50 -644 -6 c-699 -6 -678
-4 -874 -66 -117 -37 -197 -75 -307 -149 -291 -194 -504 -503 -564 -821 -9
-48 -19 -122 -23 -163 -6 -69 -8 -75 -31 -81 -175 -47 -279 -106 -385 -221
-112 -121 -173 -271 -196 -483 -17 -149 -6 -687 16 -785 34 -154 93 -265 202
-380 84 -89 167 -141 283 -177 47 -14 91 -30 97 -36 9 -6 13 -37 13 -87 0
-162 46 -343 130 -510 158 -315 434 -556 760 -664 168 -55 271 -69 534 -69
l229 0 81 -82 c62 -63 98 -91 156 -118 134 -65 160 -69 523 -74 l327 -5 0 -37
c0 -61 -28 -220 -59 -336 -26 -100 -109 -305 -132 -329 -5 -6 -9 -16 -9 -24 0
-20 44 -11 215 45 383 124 704 313 985 580 l103 98 366 6 c407 7 426 9 555 77
49 25 95 61 150 116 l78 80 227 2 c258 2 365 16 531 70 108 36 230 96 335 167
71 48 245 219 303 298 151 207 231 431 247 687 5 71 12 115 19 117 199 58 267
93 362 185 99 96 170 219 210 360 15 56 18 117 22 450 4 411 -1 476 -43 601
-80 234 -257 400 -498 468 l-62 18 -11 104 c-7 57 -19 133 -27 169 -102 431
-431 788 -857 929 -195 64 -186 63 -879 70 l-633 6 -24 69 c-49 146 -154 250
-299 299 -16 5 -115 13 -220 16 l-190 6 -3 481 -2 480 72 35 c93 43 222 167
261 249 57 118 72 258 42 375 -70 267 -366 459 -641 416z m2239 -2776 c47 -8
130 -31 183 -50 340 -121 595 -430 644 -780 8 -57 10 -409 8 -1215 -4 -1130
-4 -1135 -26 -1217 -31 -119 -63 -191 -127 -290 -154 -238 -399 -406 -661
-452 -39 -7 -766 -11 -2169 -12 -1944 -1 -2116 0 -2190 16 -206 44 -348 119
-498 264 -135 131 -229 292 -280 485 -22 81 -22 82 -22 1251 l0 1170 28 100
c51 186 135 331 264 456 152 147 305 228 508 269 85 17 202 18 2171 19 1805 1
2093 -1 2167 -14z"/>
<path d="M4315 7550 c-106 -21 -236 -91 -308 -165 -89 -92 -140 -213 -157
-371 -7 -65 -10 -436 -8 -1089 l4 -990 22 -75 c65 -213 217 -361 422 -411 45
-12 409 -14 2095 -14 l2040 0 81 27 c145 50 267 154 338 288 71 135 68 77 70
1250 l1 1055 -23 78 c-33 115 -67 174 -142 249 -51 51 -89 78 -151 108 -156
75 37 70 -2234 69 -1105 -1 -2028 -5 -2050 -9z m865 -771 c381 -88 647 -466
600 -853 -40 -333 -271 -593 -600 -677 -106 -27 -272 -30 -372 -6 -312 75
-542 318 -602 636 -21 110 -20 199 3 297 39 161 96 268 200 378 206 215 473
293 771 225z m2790 0 c164 -41 339 -154 436 -282 55 -73 115 -195 140 -287 28
-102 26 -322 -5 -420 -83 -268 -274 -454 -548 -536 -75 -23 -106 -26 -218 -26
-112 0 -142 3 -220 26 -226 68 -391 208 -496 421 -58 119 -79 206 -79 333 0
232 85 422 266 591 190 178 462 245 724 180z m-1155 -1693 c40 -17 75 -68 75
-109 0 -43 -24 -80 -91 -140 -214 -194 -552 -208 -793 -34 -105 77 -146 160
-110 227 37 69 41 70 487 70 323 0 404 -3 432 -14z"/>
</g>
</svg>
