<?xml version="1.0" standalone="no"?>
<!DOCTYPE svg PUBLIC "-//W3C//DTD SVG 20010904//EN"
 "http://www.w3.org/TR/2001/REC-SVG-20010904/DTD/svg10.dtd">
<svg version="1.0" xmlns="http://www.w3.org/2000/svg"
 width="599.000000pt" height="337.000000pt" viewBox="0 0 599.000000 337.000000"
 preserveAspectRatio="xMidYMid meet">

<g transform="translate(0.000000,337.000000) scale(0.100000,-0.100000)"
fill="#000000" stroke="none">
<path d="M3794 3223 c-50 -50 -94 -209 -94 -341 0 -251 88 -422 310 -603 l44
-35 -33 -103 c-19 -60 -38 -104 -48 -108 -18 -7 -122 42 -203 96 -30 19 -161
139 -290 266 -132 129 -273 256 -320 290 -165 117 -204 176 -180 266 13 47 64
107 114 134 20 11 36 26 36 33 0 43 -185 56 -326 22 -45 -10 -144 -42 -220
-71 l-139 -51 -100 13 c-211 28 -479 11 -652 -42 -392 -120 -707 -496 -790
-942 -24 -133 -22 -377 5 -527 61 -337 200 -612 432 -854 250 -261 533 -424
861 -498 93 -21 129 -23 349 -23 195 0 263 4 335 18 214 42 382 117 553 245
l73 54 67 -21 c175 -54 396 -62 556 -20 78 21 123 102 79 142 -23 20 -154 81
-267 123 -49 18 -96 40 -105 48 -13 14 -13 18 5 38 270 302 370 461 466 737
63 183 124 497 113 586 -8 68 3 79 100 98 197 38 351 136 449 286 54 83 81
148 105 253 29 121 31 207 5 232 -30 31 -63 19 -132 -48 -98 -94 -128 -107
-275 -116 -156 -10 -202 -26 -304 -108 -43 -34 -63 -35 -63 -4 -1 33 -42 108
-83 150 -26 27 -79 62 -139 93 -53 26 -112 65 -132 85 -32 33 -76 124 -76 158
0 19 -39 66 -55 66 -7 0 -21 -8 -31 -17z m-2191 -1114 c399 -80 754 -302 1019
-634 30 -38 122 -167 203 -285 238 -347 370 -499 553 -637 l83 -62 -37 -7
c-54 -10 -239 2 -309 21 -92 24 -148 56 -295 166 -323 243 -492 333 -549 293
-38 -27 -21 -125 40 -225 38 -61 36 -103 -4 -133 -42 -31 -197 -29 -279 3
-110 43 -291 175 -414 303 -258 265 -431 668 -451 1044 l-6 122 27 17 c40 26
79 33 204 34 79 1 145 -5 215 -20z m1704 -120 c142 -53 425 -421 383 -499 -6
-11 -28 -29 -49 -40 -88 -44 -171 -34 -258 30 -69 53 -88 102 -80 207 4 59 2
85 -10 110 -18 39 -83 73 -139 73 -69 0 -101 40 -74 90 28 52 130 65 227 29z
m-113 -221 c21 -30 20 -51 -3 -72 -27 -25 -72 -17 -90 15 -13 24 -13 29 2 53
22 34 69 36 91 4z"/>
</g>
</svg>
