<?xml version="1.0" standalone="no"?>
<!DOCTYPE svg PUBLIC "-//W3C//DTD SVG 20010904//EN"
 "http://www.w3.org/TR/2001/REC-SVG-20010904/DTD/svg10.dtd">
<svg version="1.0" xmlns="http://www.w3.org/2000/svg"
 width="1024.000000pt" height="768.000000pt" viewBox="0 0 1024.000000 768.000000"
 preserveAspectRatio="xMidYMid meet">

<g transform="translate(0.000000,768.000000) scale(0.100000,-0.100000)"
fill="#000000" stroke="none">
<path d="M5453 7409 c-50 -10 -286 -55 -525 -100 -238 -44 -516 -96 -618 -115
-274 -52 -789 -146 -1085 -199 -143 -25 -354 -64 -470 -85 -115 -21 -327 -59
-470 -85 -143 -25 -368 -66 -500 -90 -132 -24 -297 -54 -367 -66 -69 -12 -132
-25 -140 -30 -11 -7 -13 -460 -13 -2694 0 -1779 3 -2689 10 -2695 6 -4 141
-29 300 -55 160 -26 540 -90 845 -142 305 -52 789 -135 1075 -183 286 -49 648
-111 805 -138 157 -28 445 -78 640 -112 195 -34 413 -72 485 -86 88 -16 133
-20 140 -13 6 6 12 135 15 342 l5 332 540 -3 c629 -4 2273 14 2518 27 145 8
175 13 215 33 57 29 79 58 91 124 27 144 36 770 36 2644 -1 2010 -8 2457 -40
2537 -18 46 -60 83 -115 102 -65 22 -497 31 -1877 38 l-1373 6 -1 311 c-1 316
-6 407 -24 412 -5 1 -51 -6 -102 -17z m3262 -3464 l0 -2500 -1565 0 -1565 0 0
245 0 245 530 1 c292 1 535 2 540 3 6 1 9 105 7 297 l-3 296 -537 -3 -537 -3
-3 117 -3 117 542 2 542 3 -1 113 c0 61 -1 202 -1 312 l-1 200 -540 0 -540 0
0 115 c0 85 3 115 13 115 6 1 249 1 540 0 l527 -1 0 314 0 315 -512 1 c-282 0
-525 1 -540 1 l-28 0 0 110 c0 81 3 110 13 111 6 0 249 0 540 -1 l527 -1 0
320 0 321 -540 0 -541 0 3 118 3 117 539 2 540 2 0 303 -1 303 -539 5 -539 5
-3 243 -2 242 1567 -2 1568 -3 0 -2500z m-4555 1196 c0 -13 -120 -271 -256
-547 -159 -326 -297 -614 -306 -644 -7 -23 39 -123 325 -700 145 -294 262
-538 258 -542 -6 -6 -407 26 -490 40 l-43 7 -60 135 c-175 396 -221 506 -268
635 -18 50 -35 93 -39 97 -4 4 -27 -43 -51 -105 -42 -109 -168 -396 -248 -567
-22 -47 -53 -104 -70 -127 l-31 -42 -223 5 c-123 3 -229 7 -236 10 -11 3 114
256 476 966 l86 167 -19 43 c-10 24 -47 103 -82 177 -35 73 -63 135 -63 136 0
2 -32 70 -71 152 -39 81 -79 168 -89 193 -10 25 -34 78 -54 118 -68 137 -124
287 -113 299 13 12 149 23 297 23 l166 0 56 -132 c31 -73 59 -144 63 -158 4
-14 31 -81 60 -150 29 -69 74 -182 101 -252 27 -71 52 -128 55 -128 6 0 11 11
104 250 31 80 67 168 80 196 12 28 42 95 65 150 23 54 57 132 76 172 19 41 34
77 34 82 0 33 76 42 413 48 53 1 97 -2 97 -7z"/>
<path d="M6910 5655 l0 -305 635 0 635 0 0 305 0 305 -635 0 -635 0 0 -305z"/>
<path d="M6912 4793 l3 -318 633 -3 632 -2 0 320 0 320 -635 0 -635 0 2 -317z"/>
<path d="M6914 4241 c-2 -2 -4 -143 -4 -313 l0 -308 635 0 635 0 -2 313 -3
312 -628 0 c-345 0 -630 -1 -633 -4z"/>
<path d="M6917 3383 c-4 -3 -7 -145 -7 -315 l0 -308 635 0 635 0 -2 313 -3
312 -626 3 c-344 1 -629 -1 -632 -5z"/>
<path d="M6915 2517 c-3 -7 -4 -140 -3 -297 l3 -285 630 0 630 0 0 295 0 295
-628 3 c-500 2 -629 0 -632 -11z"/>
</g>
</svg>
