<?xml version="1.0" standalone="no"?>
<!DOCTYPE svg PUBLIC "-//W3C//DTD SVG 20010904//EN"
 "http://www.w3.org/TR/2001/REC-SVG-20010904/DTD/svg10.dtd">
<svg version="1.0" xmlns="http://www.w3.org/2000/svg"
 width="1024.000000pt" height="1024.000000pt" viewBox="0 0 1024.000000 1024.000000"
 preserveAspectRatio="xMidYMid meet">

<g transform="translate(0.000000,1024.000000) scale(0.100000,-0.100000)"
fill="#000000" stroke="none">
<path d="M4855 9375 c-11 -2 -67 -9 -125 -15 -161 -18 -261 -38 -431 -85 -374
-105 -715 -277 -1027 -516 -119 -92 -360 -329 -468 -459 -338 -409 -555 -914
-620 -1444 -26 -208 -23 -561 5 -756 64 -431 202 -791 446 -1160 120 -180 199
-275 375 -450 322 -320 705 -553 1135 -691 275 -87 438 -116 735 -129 285 -12
1200 -13 1220 0 13 8 15 77 18 502 1 271 -1 511 -6 533 l-8 40 -644 6 c-734 7
-767 10 -980 87 -278 100 -484 233 -700 451 -165 166 -260 302 -352 505 -101
222 -148 450 -148 713 0 252 35 429 131 660 136 326 377 616 679 817 174 116
420 221 615 261 340 71 684 55 990 -47 679 -225 1186 -840 1255 -1521 8 -79
10 -534 8 -1557 -4 -1591 1 -1474 -65 -1705 -148 -518 -537 -955 -1043 -1172
-237 -101 -448 -143 -725 -143 -469 0 -861 145 -1213 448 -41 35 -78 62 -82
60 -19 -6 -780 -762 -780 -774 0 -17 175 -169 313 -272 327 -245 705 -418
1104 -506 494 -109 1023 -93 1503 45 279 80 586 230 854 416 197 136 474 399
629 595 344 435 541 932 608 1533 16 141 24 2672 10 2935 -27 479 -116 819
-328 1243 -58 117 -209 347 -307 467 -136 168 -351 373 -541 514 -290 216
-688 402 -1065 496 -229 58 -354 72 -670 75 -157 2 -294 2 -305 0z"/>
</g>
</svg>
