<?xml version="1.0" standalone="no"?>
<!DOCTYPE svg PUBLIC "-//W3C//DTD SVG 20010904//EN"
 "http://www.w3.org/TR/2001/REC-SVG-20010904/DTD/svg10.dtd">
<svg version="1.0" xmlns="http://www.w3.org/2000/svg"
 width="477.000000pt" height="856.000000pt" viewBox="0 0 477.000000 856.000000"
 preserveAspectRatio="xMidYMid meet">

<g transform="translate(0.000000,856.000000) scale(0.100000,-0.100000)"
fill="#000000" stroke="none">
<path d="M4105 8378 c-11 -66 -72 -260 -116 -370 -126 -318 -314 -585 -620
-884 -117 -113 -266 -231 -605 -474 -398 -287 -581 -476 -742 -770 -83 -152
-143 -358 -191 -655 -17 -104 -34 -218 -37 -252 -4 -35 -10 -63 -14 -63 -11 0
-67 155 -87 240 -14 59 -18 119 -18 275 0 207 10 287 55 434 11 39 14 59 7 54
-7 -3 -61 -48 -122 -98 -227 -190 -408 -405 -512 -611 -106 -207 -146 -347
-163 -572 -24 -323 55 -886 177 -1253 14 -44 23 -82 19 -86 -7 -8 -3 -13 -63
77 -108 161 -192 330 -232 467 -28 98 -61 257 -61 298 0 19 -4 35 -9 35 -17 0
-127 -248 -180 -407 -67 -202 -84 -438 -47 -653 21 -122 81 -332 132 -463 42
-109 157 -334 239 -467 l59 -95 13 60 c7 33 23 110 35 170 11 61 23 104 26 97
2 -7 -3 -50 -12 -95 -49 -259 -78 -448 -101 -662 -54 -514 -75 -1199 -41
-1303 45 -136 193 -156 280 -38 20 27 21 43 27 559 10 749 31 1108 95 1555
139 977 413 1663 1016 2541 253 368 511 687 741 915 141 139 313 286 335 286
19 0 -20 -65 -128 -215 -497 -691 -711 -1002 -939 -1370 -422 -679 -637 -1236
-770 -1991 -42 -240 -123 -843 -114 -854 5 -5 1 -8 185 131 142 108 289 208
780 531 396 262 514 354 748 588 133 133 197 206 267 305 103 145 215 353 263
490 37 107 81 267 75 273 -2 3 -58 -46 -123 -109 -136 -131 -214 -186 -373
-264 -176 -85 -274 -107 -500 -113 -160 -3 -201 -1 -291 17 -117 23 -180 43
-179 56 0 5 55 24 123 42 460 125 786 280 1074 511 294 236 541 596 643 941
89 299 114 524 114 1031 0 434 -17 817 -73 1685 -5 83 -14 220 -20 305 -12
199 -19 260 -30 260 -4 0 -11 -19 -15 -42z"/>
</g>
</svg>
