<?xml version="1.0" standalone="no"?>
<!DOCTYPE svg PUBLIC "-//W3C//DTD SVG 20010904//EN"
 "http://www.w3.org/TR/2001/REC-SVG-20010904/DTD/svg10.dtd">
<svg version="1.0" xmlns="http://www.w3.org/2000/svg"
 width="1024.000000pt" height="1024.000000pt" viewBox="0 0 1024.000000 1024.000000"
 preserveAspectRatio="xMidYMid meet">

<g transform="translate(0.000000,1024.000000) scale(0.100000,-0.100000)"
fill="#000000" stroke="none">
<path d="M4370 9374 c-338 -60 -589 -285 -706 -634 -18 -53 -19 -171 -24
-3160 -6 -3519 4 -3160 -91 -3264 -73 -80 -133 -107 -243 -107 -75 0 -96 4
-140 25 -73 36 -123 88 -160 165 l-31 66 -5 2030 c-5 1924 -7 2033 -24 2090
-57 190 -152 334 -295 450 -269 217 -642 260 -946 108 -184 -92 -328 -238
-410 -416 -73 -158 -68 -91 -75 -1117 l-5 -925 -23 -56 c-32 -80 -91 -142
-167 -179 -84 -40 -193 -43 -271 -6 -103 48 -169 131 -193 244 -7 33 -11 176
-11 381 l0 327 -26 52 c-103 207 -392 201 -500 -10 l-24 -47 0 -384 c0 -356 1
-389 21 -463 74 -284 274 -515 531 -614 207 -80 460 -81 658 -3 220 87 403
269 494 492 55 137 56 149 56 1082 0 597 3 874 11 911 39 181 201 298 372 267
131 -23 224 -103 270 -231 9 -25 13 -528 17 -2068 l5 -2035 24 -70 c92 -273
289 -479 541 -567 206 -71 461 -63 659 21 124 52 248 147 331 251 69 87 112
166 152 280 l33 95 5 3110 5 3110 27 57 c34 72 93 136 160 174 49 27 61 29
153 29 92 0 104 -2 153 -30 70 -38 135 -111 164 -183 l23 -57 5 -2535 5 -2535
28 -48 c49 -84 146 -132 251 -125 122 7 215 77 245 183 9 30 11 688 9 2605 -4
2321 -5 2570 -20 2616 -66 210 -156 346 -307 466 -85 68 -161 108 -281 151
-79 27 -97 30 -245 32 -88 2 -171 1 -185 -1z"/>
<path d="M6805 9374 c-183 -38 -323 -101 -436 -197 -141 -121 -226 -256 -287
-457 -16 -51 -17 -318 -22 -3560 l-5 -3505 -26 -56 c-108 -229 -392 -267 -546
-73 -69 88 -67 67 -73 614 l-5 495 -29 48 c-52 88 -126 127 -238 127 -121 0
-203 -52 -250 -158 -18 -40 -19 -70 -15 -575 4 -605 0 -579 95 -760 192 -367
632 -544 1032 -415 76 24 200 85 250 122 148 111 267 279 322 458 l23 73 5
3500 5 3500 24 60 c26 64 102 149 160 179 18 10 61 23 96 31 73 15 150 4 221
-33 55 -28 138 -120 160 -179 18 -46 19 -150 24 -2828 l5 -2780 36 -102 c48
-135 115 -240 214 -338 127 -125 280 -206 443 -235 100 -18 327 -8 417 19 290
86 526 335 594 627 21 91 21 97 21 1734 0 1166 3 1662 11 1708 14 80 74 172
141 218 65 44 164 66 237 53 108 -20 187 -80 247 -184 l29 -50 5 -1480 c6
-1639 0 -1508 70 -1589 51 -58 116 -86 198 -86 40 0 85 7 106 15 38 16 126 90
126 106 0 5 11 32 25 61 l25 53 -3 1460 -2 1460 -32 109 c-69 241 -172 386
-363 515 -156 105 -294 145 -495 144 -359 -2 -668 -209 -801 -537 -68 -169
-64 -60 -64 -1887 0 -1826 4 -1713 -64 -1802 -65 -86 -192 -145 -288 -134
-113 14 -217 90 -267 196 l-26 56 -5 2780 -5 2780 -29 85 c-52 155 -119 265
-226 370 -115 115 -286 205 -447 236 -68 13 -269 18 -318 8z"/>
</g>
</svg>
