<?xml version="1.0" standalone="no"?>
<!DOCTYPE svg PUBLIC "-//W3C//DTD SVG 20010904//EN"
 "http://www.w3.org/TR/2001/REC-SVG-20010904/DTD/svg10.dtd">
<svg version="1.0" xmlns="http://www.w3.org/2000/svg"
 width="599.000000pt" height="337.000000pt" viewBox="0 0 599.000000 337.000000"
 preserveAspectRatio="xMidYMid meet">

<g transform="translate(0.000000,337.000000) scale(0.100000,-0.100000)"
fill="#000000" stroke="none">
<path d="M2715 3049 c-261 -40 -482 -209 -575 -438 l-26 -64 -60 -17 c-109
-30 -201 -87 -300 -185 -77 -76 -98 -105 -137 -185 -62 -126 -77 -190 -77
-326 0 -168 40 -295 136 -431 l44 -62 -16 -68 c-23 -98 -15 -272 19 -375 65
-201 201 -357 392 -448 115 -55 212 -74 351 -68 l113 5 28 -29 c50 -53 163
-127 242 -157 318 -122 686 -10 875 266 25 38 57 95 71 128 l24 60 75 26 c195
69 336 190 425 367 123 243 95 553 -70 770 l-39 52 16 68 c23 95 20 248 -5
345 -81 310 -340 525 -656 544 -49 3 -115 1 -145 -5 l-55 -11 -40 38 c-96 90
-211 155 -328 185 -76 20 -208 27 -282 15z m272 -210 c71 -23 158 -77 158 -97
0 -8 -130 -89 -290 -182 -159 -92 -300 -177 -312 -188 l-23 -21 0 -416 c0
-310 -3 -415 -12 -415 -6 0 -62 30 -125 66 l-113 66 0 341 c0 431 9 493 92
624 130 206 393 300 625 222z m675 -220 c179 -49 325 -199 373 -384 19 -75 21
-215 2 -215 -7 0 -141 75 -297 166 -176 103 -298 168 -320 171 -31 4 -76 -20
-390 -201 -195 -114 -360 -206 -367 -206 -11 0 -13 29 -11 137 l3 138 110 63
c530 308 558 323 650 342 73 15 167 11 247 -11z m-1562 -1023 c8 -8 166 -102
351 -208 185 -106 346 -200 358 -208 21 -14 18 -17 -94 -82 -64 -38 -121 -68
-127 -68 -6 0 -151 80 -322 178 -271 154 -319 186 -376 243 -216 218 -214 547
4 765 41 40 94 82 126 97 l55 28 5 -365 c4 -307 7 -368 20 -380z m1515 441
c336 -193 375 -218 440 -288 231 -251 186 -633 -98 -828 -26 -18 -60 -33 -75
-34 l-27 -2 -5 355 c-3 195 -9 362 -13 371 -4 8 -167 107 -362 220 -195 112
-354 209 -355 214 0 6 32 28 72 50 40 22 90 50 112 63 22 12 45 22 51 22 6 0
123 -64 260 -143z m-483 -163 l148 -86 0 -183 0 -183 -150 -86 c-82 -47 -154
-86 -159 -86 -5 0 -80 41 -165 91 l-156 91 0 173 0 173 153 90 c83 50 158 91
166 91 8 1 81 -38 163 -85z m413 -238 l110 -64 3 -383 c3 -427 2 -434 -65
-562 -68 -129 -203 -233 -353 -272 -83 -22 -211 -16 -294 14 -61 21 -166 80
-166 92 0 4 19 18 43 31 316 179 546 315 565 335 22 24 22 29 22 276 0 284 10
597 19 597 3 0 56 -29 116 -64z m-265 -515 c0 -99 -4 -141 -12 -149 -20 -15
-537 -316 -595 -346 -150 -76 -345 -73 -497 6 -73 39 -194 155 -226 218 -12
24 -31 69 -42 100 -23 65 -37 234 -20 244 6 3 114 -53 239 -125 125 -73 262
-152 303 -176 41 -23 86 -43 100 -43 14 0 61 21 105 46 44 25 199 113 345 196
146 83 269 154 275 159 21 20 25 2 25 -130z"/>
</g>
</svg>
