<?xml version="1.0" standalone="no"?>
<!DOCTYPE svg PUBLIC "-//W3C//DTD SVG 20010904//EN"
 "http://www.w3.org/TR/2001/REC-SVG-20010904/DTD/svg10.dtd">
<svg version="1.0" xmlns="http://www.w3.org/2000/svg"
 width="600.000000pt" height="600.000000pt" viewBox="0 0 600.000000 600.000000"
 preserveAspectRatio="xMidYMid meet">

<g transform="translate(0.000000,600.000000) scale(0.100000,-0.100000)"
fill="#000000" stroke="none">
<path d="M3055 5129 c-22 -6 -114 -23 -205 -39 -430 -74 -1472 -255 -1705
-295 -143 -25 -276 -48 -295 -52 l-35 -8 0 -1734 c0 -1531 2 -1735 15 -1741 8
-5 206 -40 440 -80 234 -39 459 -77 500 -85 41 -8 235 -42 430 -75 195 -34
478 -84 628 -111 259 -47 282 -49 420 -47 l147 3 3 197 2 197 828 3 c946 3
891 -2 934 86 l23 47 3 1565 c2 861 0 1588 -3 1617 -8 64 -38 110 -90 137 -39
21 -51 21 -867 24 l-828 2 -2 198 -3 197 -150 2 c-82 1 -168 -3 -190 -8z
m1985 -2129 l0 -1590 -820 0 -820 0 0 200 0 200 645 0 645 0 0 95 0 95 -645 0
-646 0 3 125 3 125 640 3 640 2 3 98 3 97 -646 0 -645 0 0 125 0 125 645 0
645 0 0 100 0 100 -645 0 -645 0 0 125 0 125 645 0 646 0 -3 95 -3 95 -640 3
-640 2 -3 128 -3 127 646 0 645 0 0 95 0 95 -643 0 c-354 0 -646 2 -648 4 -2
2 -3 60 -1 128 l3 123 587 0 c323 -1 613 1 645 3 l57 4 0 94 0 94 -645 0 -645
0 0 175 0 175 820 0 820 0 0 -1590z m-2240 757 c0 -13 -17 -92 -76 -349 -14
-62 -34 -151 -44 -198 -59 -269 -125 -557 -163 -710 l-42 -175 -39 -13 c-30
-10 -63 -10 -150 -1 -61 6 -114 14 -118 18 -8 7 -63 263 -154 716 -24 121 -46
225 -48 230 -2 6 -8 -17 -15 -50 -19 -97 -60 -289 -137 -649 l-49 -228 -140 6
c-77 4 -143 10 -146 14 -4 4 -52 237 -107 517 -141 711 -155 785 -151 789 2 2
60 6 129 7 l125 4 22 -130 c12 -71 36 -211 53 -310 18 -99 35 -205 40 -235 4
-30 13 -97 20 -147 8 -51 16 -93 19 -93 6 0 35 130 148 655 60 281 61 283 81
289 9 2 73 6 141 8 l125 3 63 -310 c35 -170 75 -366 89 -435 14 -69 31 -149
36 -178 6 -30 14 -50 17 -45 4 4 17 69 29 143 22 132 47 281 99 570 14 80 31
177 37 215 l11 70 100 6 c188 10 195 10 195 -4z"/>
</g>
</svg>
