<?xml version="1.0" standalone="no"?>
<!DOCTYPE svg PUBLIC "-//W3C//DTD SVG 20010904//EN"
 "http://www.w3.org/TR/2001/REC-SVG-20010904/DTD/svg10.dtd">
<svg version="1.0" xmlns="http://www.w3.org/2000/svg"
 width="1024.000000pt" height="1024.000000pt" viewBox="0 0 1024.000000 1024.000000"
 preserveAspectRatio="xMidYMid meet">

<g transform="translate(0.000000,1024.000000) scale(0.100000,-0.100000)"
fill="#000000" stroke="none">
<path d="M6305 9403 c-11 -3 -26 -10 -34 -17 -8 -6 -114 -144 -234 -306 -121
-162 -254 -340 -295 -394 -41 -55 -75 -106 -75 -113 0 -7 -3 -11 -5 -8 -7 7
-52 -57 -47 -66 3 -4 0 -11 -6 -15 -8 -5 -10 -2 -5 7 12 23 -13 -10 -124 -161
-58 -78 -104 -148 -102 -154 2 -6 0 -8 -3 -4 -4 4 -53 -55 -110 -130 -56 -75
-162 -218 -235 -317 -74 -99 -205 -276 -293 -394 -88 -117 -160 -220 -161
-227 -1 -7 -6 -17 -11 -21 -4 -4 -5 -1 -1 7 4 8 -1 4 -12 -10 -12 -14 -19 -26
-17 -29 2 -2 -6 -12 -18 -23 -12 -11 -15 -17 -7 -13 8 4 2 -6 -15 -20 -16 -15
-23 -24 -15 -20 8 3 6 -1 -5 -10 -11 -9 -19 -21 -17 -26 1 -6 -2 -8 -7 -4 -12
7 -33 -29 -23 -40 4 -5 2 -6 -3 -2 -12 6 -182 -220 -177 -237 2 -6 0 -8 -4 -4
-9 9 -104 -120 -104 -141 0 -8 -3 -11 -7 -8 -6 6 -28 -18 -32 -35 -1 -4 -18
-24 -36 -44 -19 -21 -33 -39 -31 -41 2 -2 -12 -20 -30 -40 -19 -20 -32 -39
-29 -41 2 -2 -6 -13 -18 -24 -12 -11 -15 -17 -7 -13 8 4 3 -3 -13 -15 -15 -12
-25 -26 -21 -31 3 -5 1 -9 -4 -9 -10 0 -355 -461 -352 -470 1 -3 -14 -22 -34
-43 -20 -22 -33 -44 -29 -50 3 -7 3 -9 -2 -5 -10 10 -145 -174 -137 -187 3 -5
2 -7 -3 -3 -11 10 -116 -132 -108 -145 3 -6 2 -8 -3 -5 -5 3 -18 -6 -28 -20
-12 -16 -14 -23 -5 -18 8 4 4 -1 -8 -12 -13 -11 -101 -125 -196 -254 -239
-323 -247 -334 -242 -342 3 -3 2 -4 -1 -1 -4 2 -39 -39 -79 -93 -39 -53 -110
-149 -156 -212 -47 -63 -161 -218 -254 -345 -203 -277 -326 -445 -553 -752
-95 -128 -172 -235 -172 -238 0 -3 -9 -15 -20 -27 -69 -80 -1361 -1855 -1367
-1879 -5 -19 23 -19 1920 -19 1058 0 1939 3 1956 6 25 5 41 21 74 68 43 64
395 536 1267 1701 627 837 675 902 1204 1620 231 314 449 611 486 660 37 50
138 187 225 305 87 118 247 334 355 480 359 485 1173 1592 1510 2055 108 149
297 407 420 575 340 465 555 763 568 787 10 17 9 25 -4 37 -14 14 -190 16
-1777 16 -969 0 -1825 2 -1902 5 -77 2 -149 2 -160 -2z"/>
<path d="M1166 9371 c-13 -14 -194 -260 -401 -546 -208 -286 -398 -547 -423
-579 l-46 -59 25 -20 c13 -11 23 -24 21 -29 -1 -5 2 -7 8 -3 5 3 10 2 10 -3 0
-14 27 -15 1232 -18 603 -1 1111 -5 1130 -8 18 -3 341 -7 718 -9 l684 -4 18
21 c34 41 835 1116 896 1202 21 31 21 33 4 52 -17 20 -26 20 -1934 24 l-1917
5 -25 -26z m-806 -1200 c0 -5 -9 -7 -20 -4 -11 3 -20 7 -20 9 0 2 9 4 20 4 11
0 20 -4 20 -9z m2953 -8 c-7 -2 -19 -2 -25 0 -7 3 -2 5 12 5 14 0 19 -2 13 -5z
m-2675 -40 c-16 -2 -40 -2 -55 0 -16 2 -3 4 27 4 30 0 43 -2 28 -4z m255 0
c-7 -2 -19 -2 -25 0 -7 3 -2 5 12 5 14 0 19 -2 13 -5z m375 0 c-10 -2 -26 -2
-35 0 -10 3 -2 5 17 5 19 0 27 -2 18 -5z"/>
<path d="M6043 2542 c-9 -6 -7 -15 7 -37 25 -38 26 -37 -11 -59 -21 -12 -27
-21 -19 -26 8 -5 5 -14 -12 -32 -13 -13 -17 -17 -10 -7 8 10 10 24 4 39 -7 18
-3 29 15 48 27 29 29 41 7 38 -18 -3 -35 -26 -28 -38 3 -5 0 -7 -8 -6 -9 2
-12 -7 -11 -27 2 -20 0 -24 -5 -13 -6 15 -11 13 -35 -17 -15 -19 -25 -40 -22
-45 4 -6 1 -9 -7 -8 -7 2 -12 -3 -10 -9 1 -7 -2 -13 -7 -13 -12 0 -84 -100
-77 -107 8 -9 -14 -44 -24 -38 -4 3 -42 -42 -84 -99 -73 -100 -87 -124 -66
-111 6 3 7 -1 3 -10 -4 -11 -8 -13 -13 -5 -4 7 -17 -3 -35 -27 l-28 -38 26 24
c19 17 27 20 27 10 0 -13 -35 -43 -52 -44 -3 0 -10 -4 -15 -9 -5 -5 -2 -6 6
-1 15 9 14 3 -14 -42 -11 -18 -24 -33 -28 -33 -5 0 1 14 13 30 12 17 19 30 17
30 -13 0 -78 -101 -71 -111 4 -7 3 -9 -4 -6 -15 10 -110 -123 -108 -152 0 -13
-5 -26 -12 -29 -11 -3 -12 0 -2 19 l11 24 -20 -24 c-12 -12 -18 -27 -15 -32 3
-5 1 -8 -4 -7 -13 4 -154 -190 -147 -201 3 -5 -5 -20 -16 -32 l-21 -24 16 28
c29 48 9 29 -44 -43 -50 -68 -52 -73 -46 -118 3 -25 10 -50 14 -54 5 -5 881
-7 1949 -6 1656 3 1942 5 1957 17 9 8 58 73 108 145 141 201 279 394 418 581
245 330 450 621 450 638 0 2 -21 21 -47 41 l-46 36 -1906 0 c-1048 0 -1911 -4
-1918 -8z m87 -6 c0 -9 -39 -13 -51 -5 -10 6 -4 9 19 9 17 0 32 -2 32 -4z m77
-2 c-3 -3 -12 -4 -19 -1 -8 3 -5 6 6 6 11 1 17 -2 13 -5z m270 0 c-3 -3 -12
-4 -19 -1 -8 3 -5 6 6 6 11 1 17 -2 13 -5z m150 0 c-3 -3 -12 -4 -19 -1 -8 3
-5 6 6 6 11 1 17 -2 13 -5z m100 0 c-3 -3 -12 -4 -19 -1 -8 3 -5 6 6 6 11 1
17 -2 13 -5z m111 -1 c-15 -2 -42 -2 -60 0 -18 2 -6 4 27 4 33 0 48 -2 33 -4z
m469 1 c-3 -3 -12 -4 -19 -1 -8 3 -5 6 6 6 11 1 17 -2 13 -5z m-1345 -156 c-7
-7 -12 -8 -12 -2 0 14 12 26 19 19 2 -3 -1 -11 -7 -17z m-9 -35 c-6 -16 -5
-17 13 -3 13 11 12 5 -7 -20 -16 -22 -35 -35 -51 -35 -14 -1 -33 -5 -42 -8
-10 -4 -15 -3 -11 3 3 6 13 10 22 10 10 0 13 6 9 16 -3 8 -2 12 4 9 12 -8 50
16 50 32 0 7 4 13 10 13 5 0 6 -8 3 -17z m-103 -93 c0 -5 -5 -10 -11 -10 -5 0
-7 5 -4 10 3 6 8 10 11 10 2 0 4 -4 4 -10z m3 -74 c-10 -13 -20 -22 -22 -20
-4 4 29 44 36 44 2 0 -4 -11 -14 -24z m-33 -50 c0 -2 -8 -10 -17 -17 -16 -13
-17 -12 -4 4 13 16 21 21 21 13z m-101 -67 c-22 -14 -33 -10 -19 6 7 8 17 12
22 9 6 -4 5 -10 -3 -15z m30 -29 c-13 -16 -25 -28 -27 -25 -5 5 37 55 45 55 2
0 -6 -13 -18 -30z m-49 6 c0 -2 -7 -9 -15 -16 -13 -11 -14 -10 -9 4 5 14 24
23 24 12z m-37 -91 c-3 -9 -8 -14 -10 -11 -3 3 -2 9 2 15 9 16 15 13 8 -4z
m-38 -85 c-38 -52 -54 -66 -33 -27 7 12 13 24 13 27 1 10 49 60 53 55 2 -2
-12 -27 -33 -55z m-115 -74 c0 -2 -8 -10 -17 -17 -16 -13 -17 -12 -4 4 13 16
21 21 21 13z m31 -39 c-10 -9 -11 -8 -5 6 3 10 9 15 12 12 3 -3 0 -11 -7 -18z
m-77 -31 c-3 -8 -13 -17 -22 -21 -13 -5 -13 -2 3 15 21 24 26 25 19 6z m26
-41 c-17 -25 -33 -45 -36 -45 -3 0 9 20 26 45 17 25 33 45 36 45 3 0 -9 -20
-26 -45z m-74 -37 c-3 -24 -20 -28 -22 -5 -1 17 5 27 17 27 5 0 7 -10 5 -22z
m-5 -71 c-10 -9 -11 -8 -5 6 3 10 9 15 12 12 3 -3 0 -11 -7 -18z m-91 -122
c-7 -9 -15 -13 -17 -11 -7 7 7 26 19 26 6 0 6 -6 -2 -15z m-50 -78 c0 -2 -12
-14 -27 -28 l-26 -24 19 27 c16 23 34 36 34 25z m-60 -77 c-6 -11 -13 -20 -16
-20 -2 0 0 9 6 20 6 11 13 20 16 20 2 0 0 -9 -6 -20z"/>
<path d="M5930 2315 c-7 -9 -11 -18 -8 -20 3 -3 11 1 18 10 7 9 11 18 8 20 -3
3 -11 -1 -18 -10z"/>
<path d="M5795 2209 c-4 -6 -5 -12 -2 -15 2 -3 7 2 10 11 7 17 1 20 -8 4z"/>
</g>
</svg>
